<svg width="64" height="64" viewBox="0 0 64 64" xmlns="http://www.w3.org/2000/svg"><title>06-Icons-Biologie-64x64</title><g fill="none"><path d="M6.421 0h51.136c3.501 0 6.389 2.899 6.389 6.389v51.136c0 3.501-2.899 6.389-6.389 6.389H6.421c-3.501 0-6.389-2.899-6.389-6.389V6.389C.032 2.899 2.931 0 6.421 0z" fill="#222"/><path d="M31.592 37.369c2.03-6.776-8.322-11.801-19.071-11.662 3.726 15.86 10.985 17.664 15.109 16.161a11.748 11.748 0 0 1-4.703-7.721s5.573-.43 8.666 3.221zm-.709-16.558c2.03-4.553-4.768-8-11.823-7.914 2.212 9.407 6.379 10.985 9.031 10.352-1.16-.859-2.212-2.427-2.491-4.821 0 0 3.436.043 5.283 2.384zm6.636-.526c2.663-.966 2.599-5.605.634-9.428-6.271 4.574-5.187 7.882-3.597 9.074.032-1.514 2.04-3.544 2.04-3.544.462.226 1.181 2.47.923 3.898zm3.189 12.263c5.541 1.922 10.277-5.874 10.76-14.121-14.69 1.579-15.807 8.054-14.217 11.318.784-3.114 6.486-3.748 6.486-3.748-.097 3.361-1.525 5.616-3.028 6.55zM27.983 20.757c7.012 7.549 8.021 15.227 7.162 21.197-3.179-.601-9.407-5.885-9.407-5.885l-.397.397c4.37 4.757 7.979 6.711 9.471 7.377-1.213 5.552-3.844 9.224-3.844 9.224h3.565c2.599-6.69 2.932-12.424 2.18-17.138.44-1.117 1.804-4.081 4.682-6.948l-.333-.311s-2.685 2.319-4.66 5.616a27.575 27.575 0 0 0-2.985-7.689c2.481-2.491 2.835-7.13 2.835-7.13h-.311c-.784 4.027-2.395 5.863-2.964 6.4-2.244-3.63-4.564-5.519-4.564-5.519l-.43.408z" fill="#fff"/></g></svg>