<svg width="64" height="64" viewBox="0 0 64 64" xmlns="http://www.w3.org/2000/svg"><title>07-Icons-Chemie-64x64</title><g fill="none"><path d="M6.421 0h51.136c3.501 0 6.389 2.899 6.389 6.389v51.136c0 3.501-2.899 6.389-6.389 6.389H6.421c-3.501 0-6.389-2.899-6.389-6.389V6.389C.032 2.899 2.931 0 6.421 0z" fill="#222"/><path d="M29.101 12.005a1.439 1.439 0 1 0 1.439-1.439 1.432 1.432 0 0 0-1.439 1.439zm-2.609 25.31h10.996l3.984 7.313s.526.634.526 2.77c0 2.083-4.639 3.275-10.169 3.275s-9.858-1.181-9.858-3.275c0-2.234.526-2.77.526-2.77l3.995-7.313zm1.815-19.06c-.87 0-1.579.677-1.579 1.514v.752c0 .752.569 1.374 1.321 1.493v8.215l-7.903 14.497s-.655.677-.655 3.468c0 2.609 5.369 5.176 12.274 5.176 6.915 0 12.746-2.566 12.746-5.176 0-2.674-.655-3.468-.655-3.468l-7.903-14.497v-8.215c.752-.118 1.321-.741 1.321-1.493v-.752c0-.838-.709-1.514-1.579-1.514h-2.244a1.45 1.45 0 0 0 1.45-1.45c0-.795-.644-1.439-1.45-1.439-.805 0-1.439.644-1.439 1.439s.644 1.45 1.439 1.45h-5.144z" fill="#fff"/></g></svg>