<svg width="64" height="64" viewBox="0 0 64 64" xmlns="http://www.w3.org/2000/svg"><title>01-Icons-Deutsch-64x64</title><g fill="none"><path d="M6.421 0h51.136c3.501 0 6.389 2.899 6.389 6.389v51.136c0 3.501-2.899 6.389-6.389 6.389H6.421c-3.501 0-6.389-2.899-6.389-6.389V6.389C.032 2.899 2.931 0 6.421 0z" fill="#222"/><path d="M14.314 17.482h35.952c1.697 0 2.996 1.299 2.996 2.996v23.968c0 1.697-1.299 2.996-2.996 2.996H14.314c-1.697 0-2.996-1.299-2.996-2.996V20.478c0-1.697 1.396-2.996 2.996-2.996z" fill="#fff"/><path d="M14.217 20.478h35.952v8.086H14.217v-8.086z" fill="#000"/><path d="M14.217 28.564h35.952v8.086H14.217v-8.086z" fill="#EB5000"/><path d="M14.217 36.66h35.952v8.086H14.217V36.66z" fill="#F3C020"/></g></svg>