<svg width="64" height="64" viewBox="0 0 64 64" xmlns="http://www.w3.org/2000/svg"><title>09-Icons-Geschichte-64x64</title><g fill="none"><path d="M6.421 0h51.136c3.501 0 6.389 2.899 6.389 6.389v51.136c0 3.501-2.899 6.389-6.389 6.389H6.421c-3.501 0-6.389-2.899-6.389-6.389V6.389C.032 2.899 2.931 0 6.421 0z" fill="#222"/><path d="M18.846 23.195v2.921h26.287v-2.921l-13.24-8.762-13.047 8.762zm0 20.456v2.921h-2.921v2.921h32.129v-2.921h-2.921v-2.921h-2.921V27.758h-2.91V43.64h-2.921V27.758H33.46V43.64h-2.921V27.758h-2.921V43.64h-2.921V27.758h-2.921V43.64h-2.932v.011z" fill="#fff"/></g></svg>