<svg width="64" height="64" viewBox="0 0 64 64" xmlns="http://www.w3.org/2000/svg"><title>13-Icons-Mathe-64x64</title><g fill="none"><path d="M6.432.011h51.125c3.501 0 6.389 2.899 6.389 6.389v51.136c0 3.501-2.899 6.389-6.389 6.389H6.432c-3.501 0-6.389-2.899-6.389-6.389V6.39C.043 2.9 2.942.011 6.432.011z" fill="#222"/><g fill="#fff"><path d="M16.601 21.187v9.374h13.992V16.569h-9.374a4.61 4.61 0 0 0-4.617 4.617zm5.595-1.826h2.803v2.803h2.803v2.803h-2.803v2.803h-2.803v-2.803h-2.803v-2.803h2.803v-2.803zm20.564-2.792h-9.374v13.992h13.992v-9.374a4.616 4.616 0 0 0-4.617-4.617zm1.815 8.387h-8.397v-2.803h8.397v2.803zM16.601 33.353v9.374a4.617 4.617 0 0 0 4.617 4.617h9.374V33.352H16.6zm10.974 8.719l-1.965 1.965-1.976-1.976-1.976 1.976-1.976-1.976 1.976-1.976-1.976-1.976 1.976-1.976 1.976 1.976 1.976-1.976 1.976 1.976-1.976 1.976 1.965 1.987zm5.81-8.719v13.992h9.374a4.617 4.617 0 0 0 4.617-4.617v-9.374H33.384zm6.926 2.094c.644 0 1.17.526 1.17 1.17 0 .644-.526 1.17-1.17 1.17-.644 0-1.17-.526-1.17-1.17 0-.644.526-1.17 1.17-1.17zm0 8.902c-.644 0-1.17-.526-1.17-1.17 0-.644.526-1.181 1.17-1.181.644 0 1.17.526 1.17 1.17 0 .644-.526 1.181-1.17 1.181zm4.263-3.071h-8.376v-2.792h8.376v2.792z"/></g></g></svg>